<svg t="1630821266995"   viewBox="0 0 1024 1024" version="1.1" xmlns="http://www.w3.org/2000/svg" p-id="2748" width="128" height="128"><path d="M233.9 735.9h223.9v56.7H233.9z" p-id="2749" fill="#ffffff"></path><path d="M736.9 847.8c0 31.3-25.4 56.7-56.7 56.7h-503c-31.3 0-55.2-25.4-55.2-56.7v-503c0-31.3 25.4-56.7 55.2-56.7h504.5c31.3 0 56.7 25.4 56.7 56.7v503h-1.5z m-55.2-614.9H177.2c-61.2 0-111.9 50.7-111.9 111.9v503c0 62.7 50.7 111.9 111.9 111.9h504.5c61.2 0 111.9-50.7 111.9-111.9v-503c0-61.2-50.7-111.9-111.9-111.9z m0 0" p-id="2750" fill="#ffffff"></path><path d="M233.9 400.1H625v56.7H233.9v-56.7z m0 111.9H625v56.7H233.9V512z m0 111.9H625v56.7H233.9v-56.7z m0 0" p-id="2751" fill="#ffffff"></path><path d="M848.8 64.2h-503c-61.2 0-111.9 50.7-111.9 111.9h55.2c0-31.3 25.4-56.7 55.2-56.7h503c31.3 0 56.7 25.4 56.7 56.7v503c0 31.3-25.4 56.7-56.7 56.7v56.7c61.2 0 111.9-50.7 111.9-111.9V176.2c1.6-61.2-49.2-112-110.4-112z m0 0" p-id="2752" fill="#ffffff"></path></svg>