<svg t="1614498392602" class="icon" viewBox="0 0 1024 1024" version="1.1" xmlns="http://www.w3.org/2000/svg" p-id="3402" width="128" height="128"><path d="M210.261333 0c-65.991111 0-119.921778 53.930667-119.921777 119.921778v784.156444c0 65.991111 53.930667 119.921778 119.921777 119.921778h603.477334c65.991111 0 119.921778-53.930667 119.921777-119.921778V241.777778L691.882667 0H210.261333z m572.643556 951.751111H240.753778c-45.397333 0-73.500444-24.462222-73.500445-69.973333V144.611556c0-45.397333 28.103111-67.242667 73.500445-67.242667h427.918222v132.209778c0 26.168889 21.276444 47.445333 47.445333 47.445333H865.848889V881.777778c0 45.397333-37.432889 69.973333-82.944 69.973333zM662.528 693.816889H361.472c-16.725333 0-30.378667-13.539556-30.378667-30.378667 0-16.725333 13.539556-30.378667 30.378667-30.378666h301.169778c16.725333 0 30.378667 13.539556 30.378666 30.378666s-13.767111 30.378667-30.492444 30.378667z m0-120.490667H361.472c-16.725333 0-30.378667-13.539556-30.378667-30.378666 0-16.725333 13.539556-30.378667 30.378667-30.378667h301.169778c16.725333 0 30.378667 13.539556 30.378666 30.378667-0.113778 16.839111-13.767111 30.378667-30.492444 30.378666z m0-120.149333H361.472c-16.725333 0-30.378667-13.539556-30.378667-30.378667 0-16.725333 13.539556-30.378667 30.378667-30.378666h301.169778c16.725333 0 30.378667 13.539556 30.378666 30.378666-0.113778 16.839111-13.767111 30.378667-30.492444 30.378667z" fill="#333333" p-id="3403"></path></svg>